<?xml version="1.0" encoding="UTF-8"?>
<svg version="1.1" xmlns="http://www.w3.org/2000/svg" width="450" height="450">
<path d="M0 0 C4.31565396 0.93172161 7.83144032 3.00362441 11.625 5.1875 C12.33922119 5.59460205 13.05344238 6.0017041 13.78930664 6.42114258 C21.58913099 10.88133376 29.29133492 15.41579138 36.69921875 20.5078125 C39.03400095 22.02205155 41.42937663 23.39467796 43.85131836 24.76367188 C48.59324252 27.49212364 53.25433271 30.35983418 57.9375 33.1875 C65.87226412 37.97008173 73.81790125 42.70736441 81.96459961 47.12182617 C85.65151808 49.14237607 89.02796663 51.39817275 92.41503906 53.87109375 C94.30733834 55.21890519 96.26067344 56.34983272 98.3125 57.4375 C102.38361413 59.64497911 106.35000203 61.99064576 110.3125 64.38671875 C114.26493947 66.7593314 118.25198493 69.07158003 122.23828125 71.38671875 C124.83774138 72.90521526 127.4213189 74.44653051 130 76 C131.67023303 77.00213982 133.34046846 78.00427565 135.01074219 79.00634766 C136.29015313 79.77406124 137.56944369 80.54197547 138.84863281 81.31005859 C142.20631542 83.32579652 145.56571145 85.33852996 148.9296875 87.34375 C154.58623281 90.71970849 160.21664838 94.11125712 165.75 97.6875 C170.05818459 100.45614215 174.46685608 102.92092872 178.98046875 105.3359375 C184.50555546 108.38081064 189.8773394 111.68526231 195.27099609 114.95556641 C197.63036986 116.38078541 200.00361978 117.78237424 202.375 119.1875 C205.50314164 121.0592145 208.54557415 123.01659848 211.5625 125.0625 C215.90177363 127.99093774 220.39725049 130.51372847 225 133 C226.68858996 133.93553538 228.37612157 134.87298401 230.0625 135.8125 C230.81660156 136.23144531 231.57070313 136.65039062 232.34765625 137.08203125 C232.89292969 137.38496094 233.43820312 137.68789062 234 138 C234 138.99 234 139.98 234 141 C231.69140625 142.6484375 231.69140625 142.6484375 228.5625 144.375 C227.46035156 144.99117187 226.35820312 145.60734375 225.22265625 146.2421875 C224.15917969 146.82226562 223.09570312 147.40234375 222 148 C220.4996515 148.83270573 218.99960903 149.6659633 217.5 150.5 C216.77296875 150.90089844 216.0459375 151.30179688 215.296875 151.71484375 C211.73137518 153.70982579 208.21600737 155.78932327 204.69140625 157.85546875 C200.95135777 160.0374276 197.18714097 162.17636688 193.42382812 164.31787109 C185.52985864 168.80999613 177.67606792 173.35079328 169.90576172 178.05371094 C166.05467 180.38088137 162.16646877 182.61154319 158.21875 184.76953125 C155.55942758 186.24433154 152.93664769 187.77599247 150.3125 189.3125 C145.72037924 192.00057069 141.11726096 194.66793128 136.5 197.3125 C135.3553125 197.96863281 134.210625 198.62476563 133.03125 199.30078125 C130.71056721 200.60167946 128.39458274 201.84379216 126 203 C126.67921594 206.12467362 126.67921594 206.12467362 129.14453125 207.28125 C130.02496094 207.6834375 130.90539062 208.085625 131.8125 208.5 C135.21071587 210.06609062 138.04080239 211.71907689 141 214 C142.31831069 214.77610226 143.65273067 215.5253324 145 216.25 C148.59698687 218.21572692 152.1510364 220.23972628 155.6875 222.3125 C160.17468936 224.93956622 164.67355871 227.54428985 169.1875 230.125 C170.27417969 230.74632812 171.36085938 231.36765625 172.48046875 232.0078125 C175.07545389 233.48298242 177.6820133 234.93610895 180.29296875 236.3828125 C185.25742069 239.13624124 190.19494799 241.93551007 195.125 244.75 C196.03862305 245.27150635 196.95224609 245.7930127 197.89355469 246.33032227 C204.00054297 249.82744533 210.0581439 253.39626781 216.07592773 257.04443359 C220.0507305 259.44972173 224.06747264 261.74599134 228.16796875 263.9296875 C230.25961042 265.15167005 232.15040069 266.43337709 234 268 C234 268.66 234 269.32 234 270 C231.77656831 271.49140022 229.56586735 272.85334386 227.25 274.1875 C226.22869995 274.78751831 226.22869995 274.78751831 225.18676758 275.3996582 C223.12856101 276.6068732 221.06485974 277.80420937 219 279 C217.90558594 279.639375 216.81117188 280.27875 215.68359375 280.9375 C213.71355284 282.08818882 211.74223298 283.23669128 209.76953125 284.3828125 C204.72100272 287.33075441 199.72146188 290.3599137 194.71435547 293.37744141 C190.39002238 295.97815848 186.05627778 298.56106021 181.703125 301.11328125 C172.30102172 306.62679725 162.96267451 312.17472814 153.875 318.1953125 C150.99080932 320.00576915 148.04954997 321.48914082 145 323 C143.00710059 324.18554716 141.02847347 325.39531775 139.0625 326.625 C137.9236104 327.33272903 136.7842685 328.0397306 135.64453125 328.74609375 C135.05236816 329.11331543 134.46020508 329.48053711 133.85009766 329.85888672 C126.77452138 334.22299909 119.67277276 338.57946652 112.375 342.5625 C107.697289 345.11872126 103.19712751 347.94508446 98.66796875 350.75390625 C94.58423499 353.27016893 90.45060727 355.69952711 86.3125 358.125 C85.58635498 358.55079346 84.86020996 358.97658691 84.11206055 359.4152832 C82.71015706 360.23719883 81.30822151 361.05905979 79.90625 361.88085938 C72.32587562 366.3181044 72.32587562 366.3181044 64.9375 371.0625 C61.84287607 373.10363493 58.66712994 374.87265244 55.41796875 376.65234375 C51.2150755 378.99482868 47.11533345 381.50797219 43 384 C41.33379222 385.00076442 39.6671269 386.00076745 38 387 C36.7625 387.7425 36.7625 387.7425 35.5 388.5 C33 390 30.5 391.5 28 393 C26.77023438 393.73863281 26.77023438 393.73863281 25.515625 394.4921875 C23.79869822 395.52127715 22.07986047 396.54718357 20.359375 397.5703125 C14.9260293 400.80531379 14.9260293 400.80531379 9.625 404.25 C4 408 4 408 0 408 C0.61739847 400.14980271 1.59532138 392.40354129 2.8125 384.625 C3.0753479 382.92597534 3.0753479 382.92597534 3.34350586 381.19262695 C4.58447718 373.30434649 6.01707825 365.46920524 7.56738281 357.63671875 C8.93853026 350.60519338 9.96085578 343.54904472 10.92602539 336.4519043 C11.78549319 330.22879652 12.94723633 324.11622175 14.24609375 317.96875 C15.41423787 312.13259839 16.14524226 306.21851051 16.91015625 300.31835938 C18.23010537 290.45623957 18.23010537 290.45623957 20 286 C22.109375 284.3984375 22.109375 284.3984375 24.75 283.375 C25.74644531 282.97667969 26.74289063 282.57835937 27.76953125 282.16796875 C29.36861328 281.58982422 29.36861328 281.58982422 31 281 C32.55267578 280.43732422 32.55267578 280.43732422 34.13671875 279.86328125 C36.41350298 279.05226107 38.69368775 278.25074598 40.9765625 277.45703125 C46.65802253 275.44032979 52.22928682 273.13597176 57.80834961 270.85424805 C62.50667466 268.94574526 67.21975557 267.21785122 72.04174805 265.64794922 C74.31752747 264.89493605 76.53417737 264.03882466 78.75 263.125 C96.58682303 255.88050572 114.6927907 248.96679414 133 243 C133 242.34 133 241.68 133 241 C132.195625 240.6596875 132.195625 240.6596875 131.375 240.3125 C128.95985528 238.97781476 126.97935152 237.40272605 124.890625 235.609375 C122.52269894 233.5937024 120.10382862 231.64486117 117.6875 229.6875 C112.66884367 225.59007648 107.80047414 221.35005928 103 217 C95.60578511 220.92370435 88.29880824 224.94130263 81.0859375 229.19140625 C77.80276099 231.11559704 74.49728287 232.99697713 71.1875 234.875 C65.54158051 238.0837302 59.96089183 241.39200699 54.4128418 244.76708984 C50.4503091 247.16778476 46.42829889 249.43560766 42.37133789 251.67260742 C39.91678331 253.04658181 37.49168455 254.46295189 35.0703125 255.89453125 C34.255625 256.37470703 33.4409375 256.85488281 32.6015625 257.34960938 C30.92458775 258.34018831 29.2501745 259.33511431 27.578125 260.33398438 C26.77117187 260.80771484 25.96421875 261.28144531 25.1328125 261.76953125 C24.40980957 262.19854736 23.68680664 262.62756348 22.94189453 263.06958008 C21 264 21 264 18 264 C19.23854511 260.28436466 20.69017178 259.40541409 23.75 257 C25.24273437 255.80890625 25.24273437 255.80890625 26.765625 254.59375 C27.29478516 254.17222656 27.82394531 253.75070312 28.36914062 253.31640625 C31.12189722 251.09442069 33.80830663 248.79524241 36.5 246.5 C41.34881353 242.37808091 46.25163091 238.33006786 51.1875 234.3125 C54.87651973 231.279306 58.51439772 228.18795255 62.15307617 225.09472656 C65.67453158 222.10644373 69.22919539 219.16422283 72.8125 216.25 C77.29904235 212.59892814 81.68165963 208.84814858 86 205 C84.46029107 201.03817586 81.98032363 199.10217726 78.6875 196.5 C77.27017578 195.37078125 77.27017578 195.37078125 75.82421875 194.21875 C74.89222656 193.4865625 73.96023437 192.754375 73 192 C69.435947 189.17315439 65.9721009 186.26603072 62.55078125 183.26953125 C61.01038948 181.91330791 61.01038948 181.91330791 59 181 C59 180.34 59 179.68 59 179 C58.46117187 178.76925781 57.92234375 178.53851563 57.3671875 178.30078125 C54.30844706 176.61998824 51.76483033 174.44498715 49.125 172.1875 C48.11695313 171.33542969 47.10890625 170.48335937 46.0703125 169.60546875 C45.31016846 168.95964844 45.31016846 168.95964844 44.53466797 168.30078125 C40.27414267 164.68956922 35.95987793 161.1462938 31.625 157.625 C28.16872036 154.79283652 24.71589931 151.95810971 21.3125 149.0625 C20.66925781 148.51722656 20.02601563 147.97195312 19.36328125 147.41015625 C18 146 18 146 18 144 C21.94303564 144.67650121 25.10310575 146.62499423 28.5 148.625 C29.12527588 148.98762939 29.75055176 149.35025879 30.39477539 149.72387695 C32.2662722 150.81072893 34.13380322 151.90407735 36 153 C37.81226988 154.06289246 39.62475977 155.12540991 41.4375 156.1875 C42.3965625 156.74953125 43.355625 157.3115625 44.34375 157.890625 C48.33419184 160.20750537 52.36110169 162.45933263 56.38330078 164.72045898 C64.81934665 169.4631217 73.20889349 174.2242347 81.37890625 179.4140625 C84.18591188 181.11248915 87.05634602 182.55236233 90 184 C92.29593043 185.22118395 94.58758943 186.45043102 96.875 187.6875 C98.02742188 188.31011719 99.17984375 188.93273437 100.3671875 189.57421875 C101.23601562 190.04472656 102.10484375 190.51523438 103 191 C103.96679688 190.154375 104.93359375 189.30875 105.9296875 188.4375 C112.50678038 182.70180098 119.1082425 177.05318257 125.96875 171.65625 C128.50499529 169.58823461 130.76352 167.38557867 133 165 C132.45214844 164.85304687 131.90429688 164.70609375 131.33984375 164.5546875 C125.38010832 162.86851845 119.68536325 160.73929727 113.95068359 158.40380859 C109.34657667 156.53077679 104.72002876 154.73588434 100.0625 153 C99.39911621 152.7527417 98.73573242 152.5054834 98.05224609 152.25073242 C96.70702744 151.75006099 95.36164959 151.24981711 94.01611328 150.75 C90.00448057 149.25766097 85.99836423 147.75057074 81.99145508 146.24560547 C78.71025224 145.01390714 75.42755792 143.78664453 72.140625 142.5703125 C63.80828903 139.47901376 55.54923389 136.2335577 47.31079102 132.89990234 C41.279154 130.47274307 35.21299209 128.25724457 29.04296875 126.203125 C21.71100813 123.30422401 21.71100813 123.30422401 19 121 C17.95800652 118.1123687 17.45452255 116.05223424 17.109375 113.078125 C16.93514008 111.91165436 16.93514008 111.91165436 16.75738525 110.72161865 C16.39210901 108.23424956 16.06997236 105.74356102 15.75 103.25 C15.52117528 101.62067728 15.28942935 99.991762 15.0546875 98.36328125 C14.70612925 95.94178673 14.36000956 93.52023471 14.02638245 91.09663391 C13.11535477 84.52603109 11.93741893 78.03176298 10.65112305 71.52514648 C9.99306195 67.96243778 9.50097921 64.40828972 9.0625 60.8125 C8.30225302 54.77487188 7.24004799 48.84442272 6.0625 42.875 C3.28444432 28.7195906 0.97827949 14.4043221 0 0 Z " fill="#0088D5" transform="translate(130,25)"/>
</svg>
